<?xml version="1.0" encoding="utf-8"?>
<!-- Svg Vector Icons : http://www.onlinewebfonts.com/icon -->
<!DOCTYPE svg PUBLIC "-//W3C//DTD SVG 1.1//EN" "http://www.w3.org/Graphics/SVG/1.1/DTD/svg11.dtd">
<svg version="1.1" xmlns="http://www.w3.org/2000/svg" xmlns:xlink="http://www.w3.org/1999/xlink" x="0px" y="0px" viewBox="0 0 1000 1000" enable-background="new 0 0 1000 1000" xml:space="preserve">
<metadata> Svg Vector Icons : http://www.onlinewebfonts.com/icon </metadata>
<g><path d="M377.5,712.8c0-55.1,12.3-107.2,36.7-153.1C187.6,575,10,761.8,10,988.5h511.4C432.6,927.2,377.5,826.2,377.5,712.8z M438.8,498.5c6.1,0,12.3,0,15.3,0c49-58.2,116.4-98,189.9-113.3c24.5-36.8,36.8-82.7,36.8-128.6c0-134.8-110.3-245-245-245s-245,110.2-245,245C193.8,388.2,304,498.5,438.8,498.5z M950.2,715.9l-6.1-3.1l-3.1-3.1c0,0,6.1-3.1,9.2-6.1c24.5-12.3,36.8-36.8,33.7-61.3c-3.1-27.6-9.2-49-21.4-67.4c-18.4-30.6-45.9-39.8-82.7-27.6c-3.1,0-6.1,3.1-9.2,3.1c0,0,0-3.1,0-6.1c9.2-24.5,3.1-52.1-15.3-73.5c-6.1-6.1-18.4-18.4-36.8-24.5c-15.3-6.1-30.6-9.2-42.9-9.2c-39.8,0-55.1,33.7-61.3,45.9c0,0,0,0-3.1-3.1c0,0,0-3.1-3.1-3.1c0-3.1-3.1-6.1-3.1-9.2c-12.2-18.4-30.6-30.6-52.1-30.6c-3.1,0-6.1,0-9.2,0c-15.3,3.1-30.6,3.1-45.9,12.2c-42.9,21.4-58.2,49-49,91.9c0,6.1,0,6.1,0,6.1c-3.1,0-6.1,0-9.2-3.1c-27.6-9.2-52.1,0-70.4,21.4c-9.2,12.3-18.4,27.6-21.4,49c-12.2,42.9,0,73.5,39.8,91.9l0,0c0,0-3.1,3.1-6.1,3.1c-24.5,9.2-36.8,30.6-39.8,58.2c0,33.7,9.2,64.3,33.7,85.8c15.3,15.3,33.7,21.4,58.2,18.4c3.1,0,6.1,0,9.2-3.1h3.1v3.1c-9.2,27.6-3.1,52.1,18.4,73.5c15.3,15.3,33.7,24.5,58.2,30.6c12.3,3.1,21.4,3.1,27.6,3.1c36.8,0,55.1-30.6,61.3-42.9c0-3.1,3.1-3.1,3.1-3.1s0,0,3.1,3.1l3.1,3.1c0,3.1,3.1,6.1,6.1,9.2c15.3,24.5,36.8,33.7,64.3,30.6c21.4-3.1,39.8-9.2,58.2-21.4c30.6-21.4,39.8-52.1,27.6-85.8l0,0h3.1c3.1,0,3.1,0,6.1,0c36.8,9.2,64.3-3.1,85.8-36.8c9.2-15.3,15.3-33.7,18.4-55.1C990,755.7,974.7,731.2,950.2,715.9z M879.8,719c3.1,18.4,12.3,36.8,30.6,45.9c3.1,0,3.1,3.1,6.1,3.1h3.1c6.1,3.1,6.1,3.1,6.1,9.2c0,12.3-3.1,18.4-9.2,27.6s-9.2,9.2-12.3,9.2c-3.1,0-6.1,0-9.2,0s-6.1,0-9.2-3.1h-3.1c-27.6-3.1-49,6.1-61.3,24.5s-12.3,39.8-6.1,61.3c3.1,6.1,3.1,6.1-3.1,12.3c-9.2,6.1-21.4,12.3-36.7,12.3l-3.1-3.1c0,0,0-3.1-3.1-6.1c0-3.1-3.1-3.1-3.1-3.1c-15.3-27.6-39.8-33.7-55.1-33.7c-12.3,0-36.8,3.1-55.1,33.7c-6.1,9.2-9.2,12.3-9.2,12.3c-3.1,0-6.1,0-12.3-3.1c-12.3-3.1-24.5-9.2-33.7-18.4c0,0,0,0,0-3.1s0-3.1,3.1-9.2c6.1-18.4,6.1-36.8-6.1-52.1c-9.2-15.3-27.6-24.5-45.9-24.5c-3.1,0-3.1,0-6.1,0h-3.1c-6.1,0-12.3,0-18.4,3.1c-3.1,0-3.1,0-9.2,0C503.1,801.7,500,786.3,500,768c15.3-6.1,24.5-15.3,33.7-27.6c9.2-15.3,12.3-30.6,9.2-49s-15.3-33.7-33.7-42.9c-12.3-6.1-12.3-6.1-9.2-21.4c3.1-12.3,6.1-18.4,12.3-24.5l3.1-3.1h3.1c18.4,6.1,30.6,6.1,42.9,3.1c33.7-9.2,52.1-39.8,45.9-79.6c-3.1-9.2,0-12.3,0-12.3s3.1-3.1,15.3-9.2c9.2-3.1,15.3-6.1,27.6-6.1l3.1,3.1c3.1,3.1,3.1,6.1,6.1,9.2c12.3,18.4,33.7,30.6,55.1,30.6l0,0c21.4,0,42.9-12.3,52.1-33.7c6.1-12.3,9.2-12.3,9.2-12.3c6.1,0,18.4,6.1,24.5,6.1c6.1,3.1,9.2,6.1,15.3,9.2c3.1,3.1,3.1,3.1,3.1,6.1c-6.1,15.3-6.1,30.6-3.1,42.9c6.1,30.6,36.8,52.1,70.4,45.9c6.1,0,12.3-3.1,18.4-6.1c3.1,0,6.1,0,6.1-3.1c0,0,3.1,0,6.1,6.1c6.1,9.2,9.2,21.4,12.3,36.8l-6.1,15.3c-6.1,3.1-15.3,9.2-24.5,18.4C882.8,682.2,876.7,700.6,879.8,719z M714.4,590.3c-67.4,0-122.5,55.1-122.5,122.5S647,835.3,714.4,835.3c67.4,0,122.5-55.1,122.5-122.5S781.7,590.3,714.4,590.3z M714.4,774.1c-33.7,0-61.3-27.6-61.3-61.3s27.6-61.3,61.3-61.3s61.3,27.6,61.3,61.3S748.1,774.1,714.4,774.1z"/></g>
</svg>